<svg width="40" height="40" viewBox="0 0 40 40" fill="none" xmlns="http://www.w3.org/2000/svg">
  <rect width="40" height="40" rx="8" fill="#24242E"/>
  <g transform="translate(4 4)">
    <rect x="3" y="3" width="5" height="5" rx="1.2" fill="#969AA5" opacity="0.3"/>
    <rect x="9.5" y="3" width="5" height="5" rx="1.2" fill="#FFA116" opacity="0.34"/>
    <rect x="16" y="3" width="5" height="5" rx="1.2" fill="#969AA5" opacity="0.3"/>
    <rect x="22.5" y="3" width="5" height="5" rx="1.2" fill="#FFA116" opacity="0.66"/>

    <rect x="3" y="9.5" width="5" height="5" rx="1.2" fill="#FFA116" opacity="0.34"/>
    <rect x="9.5" y="9.5" width="5" height="5" rx="1.2" fill="#969AA5" opacity="0.3"/>
    <rect x="16" y="9.5" width="5" height="5" rx="1.2" fill="#FFA116" opacity="0.66"/>
    <rect x="22.5" y="9.5" width="5" height="5" rx="1.2" fill="#FFA116" opacity="0.34"/>

    <rect x="3" y="16" width="5" height="5" rx="1.2" fill="#969AA5" opacity="0.3"/>
    <rect x="9.5" y="16" width="5" height="5" rx="1.2" fill="#FFA116" opacity="0.66"/>
    <rect x="16" y="16" width="5" height="5" rx="1.2" fill="#FFA116"/>
    <rect x="22.5" y="16" width="5" height="5" rx="1.2" fill="#FFA116" opacity="0.66"/>

    <rect x="3" y="22.5" width="5" height="5" rx="1.2" fill="#FFA116" opacity="0.66"/>
    <rect x="9.5" y="22.5" width="5" height="5" rx="1.2" fill="#FFA116"/>
    <rect x="16" y="22.5" width="5" height="5" rx="1.2" fill="#FFA116" opacity="0.66"/>
    <rect x="22.5" y="22.5" width="5" height="5" rx="1.2" fill="#FFA116"/>
  </g>
</svg>
